<svg version="1" xmlns="http://www.w3.org/2000/svg" width="933.333" height="933.333" viewBox="0 0 700.000000 700.000000"><path d="M148 47v47h32V63h29v31h31V0h-31v31h-29V0h-32v47zM254 15.5v15.4l13.8.3 13.7.3.3 31.2.2 31.3h31V31h28V0h-87v15.5zM355 47v47h31l.2-22.6.3-22.7 10.4 16.1c5.7 8.9 10.7 16 11.1 15.7.4-.2 5.4-7.7 11.1-16.5l10.4-16.2.3 23.1.2 23.1h31V0h-32.8l-9.8 16c-5.3 8.8-10 16-10.5 16-.4 0-5.1-7.2-10.4-16l-9.7-16H355v47zM477 47v47h76V63h-45V0h-31v47zM104.6 162.2c1.2 13.4 11.3 127.2 22.5 252.9l20.4 228.6L248 671.5c55.3 15.3 101.4 27.8 102.5 27.7 1.1-.2 47-12.7 102-28 97.1-26.9 100-27.8 100.3-30.2.1-1.4 10.1-113.6 22.2-249.5s22.1-248.5 22.3-250.3l.3-3.2H102.4l2.2 24.2zm400.9 82.5c-.3 2.1-1.4 13.9-2.5 26.3s-2.3 24.9-2.6 27.9l-.7 5.4-118.3-.7-118.4-.7v3.3c0 1.8 1.1 15.2 2.5 29.8 1.4 14.6 2.5 27.3 2.5 28.2 0 1.7 6.1 1.8 113 1.8h113v3.7c-.1 6.3-16.5 187.2-17.1 187.7-.3.3-29 8.5-63.8 18.1l-63.3 17.6-63.2-17.6c-34.7-9.7-63.4-17.9-63.8-18.3-.6-.7-8.8-88.6-8.8-95V459l31.3.2 31.2.3 2.1 24.3c1.2 13.4 2.5 24.6 2.9 25 .4.4 15.8 4.8 34.3 9.7l33.7 9 34.4-9.2c18.9-5.1 34.5-9.4 34.6-9.5.1-.2 1.7-17 3.4-37.3 1.8-20.4 3.4-38.2 3.7-39.8l.6-2.7H211.1l-.5-3.3c-.5-3-16.6-181.1-16.6-183.5 0-.9 38.7-1.2 156-1.2h156l-.5 3.7z"/></svg>